<?xml version="1.0" standalone="no"?><!DOCTYPE svg PUBLIC "-//W3C//DTD SVG 1.1//EN" "http://www.w3.org/Graphics/SVG/1.1/DTD/svg11.dtd"><svg t="1638442402748" class="icon" viewBox="0 0 1024 1024" version="1.1" xmlns="http://www.w3.org/2000/svg" p-id="3421" xmlns:xlink="http://www.w3.org/1999/xlink" width="200" height="200"><defs><style type="text/css"></style></defs><path d="M0 525.782c0 0.062 0 0.062 0 0z" p-id="3422" fill="#ffffff"></path><path d="M781.312 300.468c-75.5-42.562-175.376-66-281.25-66-131.5 0-255.438 29.062-349 81.812-46.562 26.282-83.312 57.094-109.188 91.624C14.188 444.812 0.124 484.812 0 525.782c0.188 11.624 9.688 20.938 21.312 20.938s21.062-9.312 21.312-20.938c0-64.062 45.938-125.25 129.376-172.312 87.25-49.25 203.75-76.344 328.062-76.344 98.688 0 191.124 21.5 260.312 60.532 65.312 36.844 101.312 84.5 101.312 134.124 0 38.124-28 74.938-78.876 103.624-54.75 30.876-127.938 47.876-206.188 47.876-30 0-59.062-3.188-86-9.188l-5.062 42.5c28.812 6.124 59.562 9.344 91.062 9.344 85.438 0 166.124-18.968 227.124-53.344 64.876-36.624 100.624-86.594 100.624-140.812 0.006-65.72-43.746-126.564-123.058-171.314z" fill="#ffffff" p-id="3423"></path><path d="M1002.624 476.656c-11.75 0-21.312 9.562-21.312 21.376 0 64.062-45.938 125.438-129.376 172.5-87.25 49.25-203.75 76.344-328 76.344-98.688 0-191.124-21.5-260.312-60.532-65.376-36.844-101.376-84.5-101.376-134.124 0-38.124 28.062-74.938 78.938-103.624 54.688-30.876 127.938-47.876 206.124-47.876 30 0 59.062 3.188 86 9.188l4.624-42.624c-28.688-6.062-59.25-9.218-90.624-9.218-85.438 0-166.124 18.968-227.124 53.344C155.312 448.032 119.624 498 119.624 552.218c0 65.718 43.688 126.562 123 171.312 75.5 42.562 175.376 66 281.312 66 131.5 0 255.438-29.062 349-81.812 46.5-26.282 83.25-57.094 109.188-91.624C1009.876 579.032 1024 539.188 1024 498.032a21.366 21.366 0 0 0-21.376-21.376z" fill="#ffffff" p-id="3424"></path><path d="M658.876 512.062c0 81.156-65.75 146.906-146.938 146.906-81.124 0-146.876-65.75-146.876-146.906s65.75-146.906 146.876-146.906c81.186 0 146.938 65.75 146.938 146.906z" fill="#ffffff" p-id="3425"></path><path d="M576 512.062c0 35.344-28.688 64-64 64-35.376 0-64-28.656-64-64s28.624-64 64-64c35.312 0 64 28.656 64 64z" fill="#ffffff" p-id="3426"></path></svg>