<?xml version="1.0" standalone="no"?><!DOCTYPE svg PUBLIC "-//W3C//DTD SVG 1.1//EN" "http://www.w3.org/Graphics/SVG/1.1/DTD/svg11.dtd"><svg t="1637659552249" class="icon" viewBox="0 0 1024 1024" version="1.1" xmlns="http://www.w3.org/2000/svg" p-id="3156" xmlns:xlink="http://www.w3.org/1999/xlink" width="200" height="200"><defs><style type="text/css"></style></defs><path d="M925.866667 349.866667c-4.266667-6.4-14.933333-17.066667-29.866667-32-40.533333-44.8-110.933333-119.466667-142.933333-151.466667-14.933333-14.933333-34.133333-32-70.4-34.133333H424.533333c-42.666667 0-68.266667 0-83.2 2.133333v-2.133333c-17.066667 0-44.8 4.266667-72.533333 34.133333-19.2 19.2-49.066667 51.2-76.8 83.2-36.266667 38.4-74.666667 78.933333-91.733333 98.133333-36.266667 38.4-38.4 93.866667-2.133334 142.933334l2.133334 2.133333c34.133333 36.266667 108.8 115.2 194.133333 204.8l147.2 155.733333c29.866667 32 53.333333 36.266667 72.533333 36.266667 19.2 0 42.666667-4.266667 72.533334-36.266667l147.2-155.733333c83.2-87.466667 155.733333-164.266667 194.133333-206.933333 29.866667-32 38.4-96-2.133333-140.8z m-32 115.2c-38.4 42.666667-110.933333 117.333333-194.133334 204.8l-147.2 155.733333c-21.333333 21.333333-34.133333 21.333333-40.533333 21.333333-8.533333 0-21.333333 0-40.533333-21.333333l-147.2-155.733333c-85.333333-89.6-160-168.533333-192-204.8-23.466667-32-23.466667-64 0-87.466667 17.066667-19.2 55.466667-59.733333 91.733333-98.133333 29.866667-29.866667 59.733333-61.866667 76.8-83.2 17.066667-19.2 29.866667-21.333333 42.666667-21.333334H682.666667c19.2 0 29.866667 10.666667 40.533333 21.333334 32 32 100.266667 104.533333 142.933333 149.333333 12.8 14.933333 23.466667 25.6 27.733334 29.866667 23.466667 29.866667 19.2 68.266667 0 89.6z" p-id="3157" fill="#ffffff"></path><path d="M674.133333 369.066667L512 526.933333l-164.266667-157.866666c-8.533333-8.533333-21.333333-8.533333-29.866666 0s-8.533333 21.333333 0 29.866666l177.066666 170.666667c4.266667 4.266667 8.533333 6.4 14.933334 6.4h4.266666c4.266667 0 10.666667-2.133333 14.933334-6.4l177.066666-170.666667c8.533333-8.533333 8.533333-21.333333 0-29.866666s-23.466667-8.533333-32 0z" p-id="3158" fill="#ffffff"></path></svg>