<?xml version="1.0" standalone="no"?><!DOCTYPE svg PUBLIC "-//W3C//DTD SVG 1.1//EN" "http://www.w3.org/Graphics/SVG/1.1/DTD/svg11.dtd"><svg t="1638328326317" class="icon" viewBox="0 0 1024 1024" version="1.1" xmlns="http://www.w3.org/2000/svg" p-id="5292" xmlns:xlink="http://www.w3.org/1999/xlink" width="200" height="200"><defs><style type="text/css"></style></defs><path d="M816 76H208a40 40 0 0 0-40 40v792a40 40 0 0 0 40 40h608a40 40 0 0 0 40-40V116a40 40 0 0 0-40-40z m-32 800H240V681h544z m0-267H240V414.7h544z m0-266.3H240V148h544zM508 269h208a4 4 0 0 0 4-4v-56a4 4 0 0 0-4-4H508a4 4 0 0 0-4 4v56a4 4 0 0 0 4 4z m-160 12a44 44 0 1 0-44-44 44 44 0 0 0 44 44z m0 275a44 44 0 1 0-44-44 44 44 0 0 0 44 44z m0 274a44 44 0 1 0-44-44 44 44 0 0 0 44 44z m160-286h208a4 4 0 0 0 4-4v-56a4 4 0 0 0-4-4H508a4 4 0 0 0-4 4v56a4 4 0 0 0 4 4z m0 274h208a4 4 0 0 0 4-4v-56a4 4 0 0 0-4-4H508a4 4 0 0 0-4 4v56a4 4 0 0 0 4 4z" p-id="5293" fill="#1296DB"></path></svg>