<?xml version="1.0" standalone="no"?><!DOCTYPE svg PUBLIC "-//W3C//DTD SVG 1.1//EN" "http://www.w3.org/Graphics/SVG/1.1/DTD/svg11.dtd"><svg t="1637059275618" class="icon" viewBox="0 0 1024 1024" version="1.1" xmlns="http://www.w3.org/2000/svg" p-id="2536" xmlns:xlink="http://www.w3.org/1999/xlink" width="200" height="200"><defs><style type="text/css"></style></defs><path d="M511.956509 926.496315c-228.722238 0-414.118716-185.605232-414.118716-414.503479 0-228.91462 185.396477-414.489152 414.118716-414.489152 228.748844 0 414.204673 185.575556 414.204673 414.489152C926.161183 740.891084 740.705354 926.496315 511.956509 926.496315M679.212838 429.269787 536.099373 285.665135c-3.122107-4.683672-7.671727-8.5487-13.558807-10.600429-3.122107-1.248434-6.451946-1.784646-9.901511-1.725294-0.237407 0-0.416486-0.118704-0.682545-0.118704-0.297782 0-0.565888 0.149403-0.892323 0.179079-3.302209-0.060375-6.571672 0.460488-9.605775 1.635243-5.947456 2.081405-10.614755 6.006807-13.736862 10.779507L344.756463 429.269787c-10.050913 10.06524-9.277294 27.177989 1.694595 38.180578 11.031241 11.015891 27.653827 11.328 37.734416 1.218758 0.772596-0.803295 1.575892-1.338485 2.25946-2.25946l97.411587-97.099479 0.237407 372.355543c-0.118704 1.041726 0 1.963725 0 3.003404 0 13.410428 11.95324 24.234961 27.5341 24.234961 15.523555 0 28.189016-10.82351 28.189016-24.234961l0.327458-375.387599 97.441263 97.129154c0.653893 0.920976 1.456165 1.457188 2.229784 2.25946 10.081613 10.109242 26.704199 9.797134 37.705763-1.218758C688.520831 456.447776 689.324126 439.335027 679.212838 429.269787" p-id="2537" fill="#1afa29"></path></svg>