<svg xmlns="http://www.w3.org/2000/svg" viewBox="0 0 462.55 66.24"><defs><style>.cls-1{fill:#fff;}</style></defs><g id="图层_2" data-name="图层 2"><g id="图层_1-2" data-name="图层 1"><polygon class="cls-1" points="462.55 14.66 444.96 34.21 462.55 53.77 452.21 53.74 439.81 39.95 427.4 53.74 417.06 53.77 434.65 34.21 417.06 14.66 427.4 14.69 439.81 28.48 452.21 14.69 462.55 14.66 462.55 14.66"/><path class="cls-1" d="M397.75,21.31c6.87,0,12.43,6.08,12.43,12.9s-5.56,12.87-12.43,12.87H376V21.31h0V14.66h-7.25V53.77h29a19.56,19.56,0,1,0,0-39.11H381.21l5.15,6.64"/><path class="cls-1" d="M144.23,46.58H123.08c-7.78,0-14-5.21-14-12s6.19-12.78,14-12.78h26.73l-5.58-7.18H123.08c-11.61,0-21.15,9.07-21.15,20s9.54,19.15,21.15,19.15h26.73l-5.58-7.19Z"/><path class="cls-1" d="M248.74,24.4,232.43,39.46,216.05,24.39V53.77l-8-5.58V14.66h8l16.38,15,16.3-15h8V54l-8-5.59Z"/><path class="cls-1" d="M362.46,53.77h-8L321.8,24.41V53.77l-8-5.37V14.66h8L354.48,44V14.66l8,5.38Z"/><polygon class="cls-1" points="290.85 14.66 280.81 14.66 261.51 53.77 269.49 53.77 272.35 48.09 272.35 48.09 272.36 48.08 274.44 43.84 274.45 43.84 277.66 37.31 277.65 37.31 285.86 20.74 294.01 37.31 281.56 37.31 278.41 43.84 297.27 43.84 302.16 53.77 310.15 53.77 290.85 14.66"/><path class="cls-1" d="M154.64,34.21h0A19.56,19.56,0,0,0,174.2,53.77h9.53a19.56,19.56,0,0,0,19.56-19.56h0a19.55,19.55,0,0,0-19.56-19.55H174.2A19.55,19.55,0,0,0,154.64,34.21ZM183,46.58h-8a12.36,12.36,0,0,1-12.36-12.36h0A12.36,12.36,0,0,1,175,21.85h8a12.37,12.37,0,0,1,12.36,12.37h0A12.37,12.37,0,0,1,183,46.58Z"/><path class="cls-1" d="M52.07,0l2.82,10.77h-22c-8.3,0-22.21,6.54-22.21,22.35S23.67,56,32.76,56a24.17,24.17,0,0,0,5.31-.59L29.76,24.74H58.55l2.9,10.78H43.83l4,14.84,0-.06c.22.89.41,1.65.58,2.35l2.2,8.14-.18.07.06.25a32.64,32.64,0,0,1-17.1,5.13h-.51A33.15,33.15,0,0,1,21.47,2.06,32.87,32.87,0,0,1,32.36,0H52.07Zm4.7,52.78,0,0,.42,1.2a1,1,0,0,0,.43.48l.08,0,1.18.4c.19.06.21.17.06.24l-.06,0-1.2.41a1,1,0,0,0-.48.43l0,.08-.4,1.19c-.06.19-.17.2-.24,0l0,0-.41-1.19a1,1,0,0,0-.44-.48l-.08,0-1.17-.4c-.19-.07-.21-.17-.06-.24l.06,0,1.18-.4a.88.88,0,0,0,.48-.43l0-.08.4-1.19c.06-.19.17-.2.24,0Zm1-15.76,0,.09,1,3a2.34,2.34,0,0,0,1.09,1.23l.11.05,2.76,1c.46.17.49.44.09.62l-.09,0-2.8,1a2.25,2.25,0,0,0-1.15,1.16l0,.12-.94,3c-.15.5-.41.52-.58.09l0-.09-1-3a2.4,2.4,0,0,0-1.09-1.24L55,44l-2.75-1c-.46-.18-.48-.45-.08-.63l.09,0,2.75-1a2.3,2.3,0,0,0,1.16-1.16l0-.12.95-3c.15-.5.41-.53.58-.09Zm4.85,8.55c0-.1.1-.1.13,0h0l.21.6a.51.51,0,0,0,.26.26h0l.59.19c.11,0,.11.1,0,.13h0l-.6.21a.47.47,0,0,0-.26.26h0l-.2.59c0,.1-.09.1-.13,0h0l-.2-.6a.46.46,0,0,0-.26-.25h0l-.59-.21c-.1,0-.1-.09,0-.13h0l.6-.2a.44.44,0,0,0,.25-.25h0Z"/><rect class="cls-1" x="83.8" y="14.37" width="2.39" height="39.91"/></g></g></svg>